HIERARCHY
ROOT Hips
{
	OFFSET -0.001795 -0.223333 0.028219
	CHANNELS 6 Xposition Yposition Zposition Zrotation Yrotation Xrotation 
	JOINT LeftUpLeg
	{
		OFFSET 0.069520 -0.091406 -0.006815
		CHANNELS 3 Zrotation Yrotation Xrotation
		JOINT LeftLeg
		{
			OFFSET 0.034277 -0.375199 -0.004496
			CHANNELS 3 Zrotation Yrotation Xrotation
			JOINT LeftFoot
			{
				OFFSET -0.013596 -0.397961 -0.043693
				CHANNELS 3 Zrotation Yrotation Xrotation
				JOINT LeftToe
				{
					OFFSET 0.026358 -0.055791 0.119288
					CHANNELS 3 Zrotation Yrotation Xrotation
					End Site
					{
						OFFSET 0.000000 0.000000 0.000000
					}
				}
			}
		}
	}
	JOINT RightUpLeg
	{
		OFFSET -0.067670 -0.090522 -0.004320
		CHANNELS 3 Zrotation Yrotation Xrotation
		JOINT RightLeg
		{
			OFFSET -0.038290 -0.382569 -0.008850
			CHANNELS 3 Zrotation Yrotation Xrotation
			JOINT RightFoot
			{
				OFFSET 0.015774 -0.398415 -0.042312
				CHANNELS 3 Zrotation Yrotation Xrotation
				JOINT RightToe
				{
					OFFSET -0.025372 -0.048144 0.123348
					CHANNELS 3 Zrotation Yrotation Xrotation
					End Site
					{
						OFFSET 0.000000 0.000000 0.000000
					}
				}
			}
		}
	}
	JOINT Spine
	{
		OFFSET -0.002533 0.108963 -0.026696
		CHANNELS 3 Zrotation Yrotation Xrotation
		JOINT Spine1
		{
			OFFSET 0.005487 0.135180 0.001092
			CHANNELS 3 Zrotation Yrotation Xrotation
			JOINT Spine2
			{
				OFFSET 0.001457 0.052922 0.025425
				CHANNELS 3 Zrotation Yrotation Xrotation
				JOINT Neck
				{
					OFFSET -0.002778 0.213870 -0.042857
					CHANNELS 3 Zrotation Yrotation Xrotation
					JOINT Head
					{
						OFFSET 0.005152 0.064970 0.051349
						CHANNELS 3 Zrotation Yrotation Xrotation
						End Site
						{
							OFFSET 0.000000 0.000000 0.000000
						}
					}
				}
				JOINT LeftShoulder
				{
					OFFSET 0.078845 0.121749 -0.034090
					CHANNELS 3 Zrotation Yrotation Xrotation
					JOINT LeftArm
					{
						OFFSET 0.090977 0.030469 -0.008868
						CHANNELS 3 Zrotation Yrotation Xrotation
						JOINT LeftForeArm
						{
							OFFSET 0.259612 -0.012772 -0.027456
							CHANNELS 3 Zrotation Yrotation Xrotation
							JOINT LeftHand
							{
								OFFSET 0.249234 0.008986 -0.001171
								CHANNELS 3 Zrotation Yrotation Xrotation
								End Site
								{
									OFFSET 0.000000 0.000000 0.000000
								}
							}
						}
					}
				}
				JOINT RightShoulder
				{
					OFFSET -0.081759 0.118833 -0.038615
					CHANNELS 3 Zrotation Yrotation Xrotation
					JOINT RightArm
					{
						OFFSET -0.096012 0.032551 -0.009143
						CHANNELS 3 Zrotation Yrotation Xrotation
						JOINT RightForeArm
						{
							OFFSET -0.253742 -0.013329 -0.021401
							CHANNELS 3 Zrotation Yrotation Xrotation
							JOINT RightHand
							{
								OFFSET -0.255298 0.007772 -0.005559
								CHANNELS 3 Zrotation Yrotation Xrotation
								End Site
								{
									OFFSET 0.000000 0.000000 0.000000
								}
							}
						}
					}
				}
			}
		}
	}
}
MOTION
Frames: 9
Frame Time: 0.050000
0.000000 1.888995 0.000000 -1.796709 0.020275 4.431443 -0.526772 -1.060184 -11.246720 0.718490 -0.707104 15.335211 1.059150 -1.913662 -8.385049 0.000000 0.000000 0.000000 -0.689509 1.016283 -10.510451 3.535337 -0.195192 21.451118 -2.275080 -3.168459 -6.106972 0.000000 0.000000 0.000000 -1.491044 -0.245200 9.769856 1.658205 -0.255518 -12.191926 3.796588 1.301268 13.875949 0.964018 0.517586 -15.299744 0.000000 0.000000 0.000000 -16.992854 8.983087 -6.218697 -49.461412 2.229929 -7.463453 -8.855598 -30.894260 3.793065 0.000000 0.000000 0.000000 16.960254 -6.723946 -4.642952 45.615116 3.619950 -3.976972 0.378137 24.688592 1.083102 0.000000 0.000000 0.000000 
-0.000340 1.895382 0.006061 -3.175446 0.867823 6.666787 2.772024 -1.217521 -16.962590 -1.731522 -0.278435 22.090865 2.338611 -2.297682 -14.471704 0.000000 0.000000 0.000000 -0.738850 1.299125 -13.564833 5.313311 -0.823911 24.034493 -2.620245 -3.559258 -7.722476 0.000000 0.000000 0.000000 -2.024315 -0.163244 8.983899 1.559320 -0.243056 -11.080250 6.608827 0.502175 12.691710 0.000313 1.134749 -16.661364 0.000000 0.000000 0.000000 -17.717328 12.174348 -7.967891 -53.331833 3.768454 -8.562168 -9.852141 -36.289131 4.958165 0.000000 0.000000 0.000000 15.413594 -6.822548 -4.644570 49.598166 1.435007 -4.917929 -4.928923 27.522276 0.006416 0.000000 0.000000 0.000000 
-0.000387 1.894251 0.013509 -1.801332 2.155835 8.479325 2.524059 -1.841108 -24.184917 -5.659997 0.906202 31.025990 5.090216 3.421343 -19.252035 0.000000 0.000000 0.000000 -1.671964 1.572100 -18.102892 5.466890 -1.124227 29.783205 -4.515651 -9.074424 -9.628477 0.000000 0.000000 0.000000 -2.425837 -0.099292 8.462555 0.679128 0.111601 -11.360592 4.910278 0.476509 13.488419 -0.219645 1.312588 -15.566890 0.000000 0.000000 0.000000 -15.783452 14.653397 -8.999310 -55.377480 3.981902 -9.038572 -11.556499 -40.302212 6.084567 0.000000 0.000000 0.000000 17.189361 -4.375938 -3.398939 48.099941 1.849229 -4.707688 -1.204357 29.770116 0.987907 0.000000 0.000000 0.000000 
-0.001158 1.894659 0.023146 -1.493390 1.551870 7.314906 1.860436 -2.250445 -28.018454 -5.833061 1.141156 39.731383 5.880588 4.998754 -21.888125 0.000000 0.000000 0.000000 -1.966609 1.558440 -18.247802 5.292850 -1.098768 34.972133 -5.427530 -10.953557 -13.201170 0.000000 0.000000 0.000000 -3.695289 -0.019233 12.358250 1.048072 0.116025 -15.443843 5.940459 2.391485 18.015032 0.198665 1.592213 -20.495756 0.000000 0.000000 0.000000 -20.797013 15.692164 -11.320412 -52.471865 2.660663 -8.285379 -14.014188 -48.723128 8.526111 0.000000 0.000000 0.000000 15.434828 -3.113659 -2.066566 46.881161 5.777094 -3.702527 -0.702375 30.265683 1.335983 0.000000 0.000000 0.000000 
-0.002726 1.899366 0.039284 -0.849117 3.969485 6.011153 1.473918 -2.931573 -32.146357 -5.759766 0.566380 50.265545 6.335336 6.438872 -21.400491 0.000000 0.000000 0.000000 -2.138727 1.369836 -16.945264 4.914620 -1.470192 39.052238 -5.364947 -10.556617 -15.597769 0.000000 0.000000 0.000000 -3.844058 -0.138882 16.726426 1.101884 0.237495 -18.060213 5.367898 3.152607 19.739966 2.098485 0.856423 -21.292072 0.000000 0.000000 0.000000 -21.582839 15.451113 -11.995229 -50.309939 -0.983742 -6.484414 -9.745069 -60.496201 7.857864 0.000000 0.000000 0.000000 11.245869 -3.914514 -1.808553 47.015030 7.198050 -3.284171 1.539815 38.024366 2.897021 0.000000 0.000000 0.000000 
-0.004702 1.918509 0.067216 0.096817 4.083465 6.528390 -0.965932 -3.847256 -34.300444 -2.748549 -1.472492 54.435032 5.310951 5.025907 -17.390315 0.000000 0.000000 0.000000 -2.980584 1.346411 -18.232066 4.967115 -1.716565 43.632311 -4.774388 -9.512730 -11.505496 0.000000 0.000000 0.000000 -5.650853 0.183064 16.310849 0.668279 0.363208 -17.809532 5.455732 2.797610 19.457740 1.950300 0.789026 -20.089052 0.000000 0.000000 0.000000 -19.822829 15.684106 -11.468780 -47.832642 -4.092552 -5.020390 8.037514 -73.363723 -3.210147 0.000000 0.000000 0.000000 7.437882 -2.530857 -1.083930 45.780836 9.950669 -2.128665 -3.679286 41.658838 1.368021 0.000000 0.000000 0.000000 
-0.007178 1.953137 0.106627 0.141726 4.752724 7.460493 -0.633301 -3.567703 -32.496057 -2.108644 -1.820595 50.426928 3.765194 5.201102 -7.640825 0.000000 0.000000 0.000000 -3.873335 1.272035 -19.290449 6.107811 -2.599036 45.305449 -2.217784 -6.168431 1.652343 0.000000 0.000000 0.000000 -6.268428 0.289321 13.748529 1.660370 0.118686 -18.548334 4.304703 1.450495 20.178524 2.023654 0.487575 -18.618062 0.000000 0.000000 0.000000 -16.950946 14.296878 -9.637480 -43.794448 -7.720178 -3.521693 43.577976 -78.590433 -32.797356 0.000000 0.000000 0.000000 6.483687 -2.827329 -1.251033 40.715124 11.709953 -1.546198 -3.898722 43.291427 1.153345 0.000000 0.000000 0.000000 
-0.009959 1.992353 0.150584 -0.745159 4.758830 7.876486 0.605373 -3.087661 -31.191084 -3.652410 -0.759691 47.565077 3.138216 6.603234 -0.519957 0.000000 0.000000 0.000000 -4.553045 1.320624 -22.477469 7.989451 -3.966308 48.882104 -3.081775 -9.202835 5.661355 0.000000 0.000000 0.000000 -5.143447 0.129333 13.572479 1.216587 0.301394 -20.497379 4.019127 -0.221730 19.608454 1.853647 -0.184927 -12.854995 0.000000 0.000000 0.000000 -12.577697 12.932633 -7.467154 -42.344016 -13.046319 -1.822252 59.445029 -72.724620 -41.428241 0.000000 0.000000 0.000000 0.797089 -1.905675 -0.726433 40.351107 12.649018 -1.084424 -3.758929 44.205248 0.937949 0.000000 0.000000 0.000000 
-0.012975 2.016961 0.192261 -1.815398 4.856138 7.439226 0.939931 -3.238314 -33.212591 -5.605777 0.268296 50.904420 3.196119 8.828062 6.143630 0.000000 0.000000 0.000000 -4.964395 1.447371 -28.112093 10.015306 -5.926762 55.190434 -4.906082 -12.967193 4.331104 0.000000 0.000000 0.000000 -4.290272 -0.039420 15.237067 2.161721 0.086220 -21.454979 3.875415 -0.820294 19.551931 1.692290 -0.067118 -13.761022 0.000000 0.000000 0.000000 -12.876950 9.764207 -5.895312 -38.653146 -15.069980 -1.207891 60.151027 -63.548115 -35.569081 0.000000 0.000000 0.000000 -0.451161 -0.519151 -0.173850 35.398737 13.033762 -0.992768 -10.469625 43.369493 -1.855265 0.000000 0.000000 0.000000 
